<?xml version="1.0" encoding="UTF-8" standalone="no" ?>
<!DOCTYPE svg PUBLIC "-//W3C//DTD SVG 1.1//EN" "http://www.w3.org/Graphics/SVG/1.1/DTD/svg11.dtd">
<svg xmlns="http://www.w3.org/2000/svg" xmlns:xlink="http://www.w3.org/1999/xlink" version="1.1" width="1280" height="1024" viewBox="0 0 1280 1024" xml:space="preserve">
<desc>Created with Fabric.js 4.4.0</desc>
<defs>
</defs>
<g transform="matrix(1 0 0 1 640 512)" id="background-logo"  >
<rect style="stroke: none; stroke-width: 0; stroke-dasharray: none; stroke-linecap: butt; stroke-dashoffset: 0; stroke-linejoin: miter; stroke-miterlimit: 4; fill: rgb(255,255,255); fill-rule: nonzero; opacity: 1;"  paint-order="stroke"  x="-640" y="-512" rx="0" ry="0" width="1280" height="1024" />
</g>
<g transform="matrix(2.155438024287345 0 0 2.155438024287345 640.5243910974244 512.4195128779395)" id="logo-logo"  >
<g style=""  paint-order="stroke"   >
		<g transform="matrix(0.20288458439150722 0 0 -0.20288458439150717 0 2.842171e-14)"  >
<linearGradient id="SVGID_27_2_2_2_2_2_2_2_128709" gradientUnits="userSpaceOnUse" gradientTransform="matrix(1 0 0 1 0 0)"  x1="0" y1="0" x2="0" y2="1246">
<stop offset="0%" style="stop-color:rgb(245,81,95);stop-opacity: 1"/>
<stop offset="100%" style="stop-color:rgb(159,4,27);stop-opacity: 1"/>
</linearGradient>
<path style="stroke: none; stroke-width: 1; stroke-dasharray: none; stroke-linecap: butt; stroke-dashoffset: 0; stroke-linejoin: miter; stroke-miterlimit: 4; fill: url(#SVGID_27_2_2_2_2_2_2_2_128709); fill-rule: nonzero; opacity: 1;"  paint-order="stroke"  transform=" translate(-653.5, -623)" d="M 0 0 L 0 1007 L 2 1007 L 2 1008 L 4 1008 L 4 1009 L 6 1009 L 6 1010 L 8 1010 L 8 1011 L 10 1011 L 10 1012 L 12 1012 L 12 1013 L 14 1013 L 14 1014 L 16 1014 L 16 1015 L 17 1015 L 17 1016 L 19 1016 L 19 1017 L 21 1017 L 21 1018 L 23 1018 L 23 1019 L 25 1019 L 25 1020 L 27 1020 L 27 1021 L 29 1021 L 29 1022 L 31 1022 L 31 1023 L 33 1023 L 33 1024 L 35 1024 L 35 1025 L 37 1025 L 37 1026 L 39 1026 L 39 1027 L 40 1027 L 40 1028 L 42 1028 L 42 1029 L 44 1029 L 44 1030 L 46 1030 L 46 1031 L 48 1031 L 48 1032 L 50 1032 L 50 1033 L 52 1033 L 52 1034 L 54 1034 L 54 1035 L 56 1035 L 56 1036 L 58 1036 L 58 1037 L 60 1037 L 60 1038 L 61 1038 L 61 1039 L 63 1039 L 63 1040 L 65 1040 L 65 1041 L 67 1041 L 67 1042 L 69 1042 L 69 1043 L 71 1043 L 71 1044 L 73 1044 L 73 1045 L 75 1045 L 75 1046 L 77 1046 L 77 1047 L 79 1047 L 79 1048 L 81 1048 L 81 1049 L 83 1049 L 83 1050 L 84 1050 L 84 1051 L 86 1051 L 86 1052 L 88 1052 L 88 1053 L 90 1053 L 90 1054 L 92 1054 L 92 1055 L 94 1055 L 94 1056 L 96 1056 L 96 1057 L 98 1057 L 98 1058 L 100 1058 L 100 1059 L 102 1059 L 102 1060 L 104 1060 L 104 1061 L 105 1061 L 105 1062 L 107 1062 L 107 1063 L 109 1063 L 109 1064 L 111 1064 L 111 1065 L 113 1065 L 113 1066 L 115 1066 L 115 1067 L 117 1067 L 117 1068 L 119 1068 L 119 1069 L 121 1069 L 121 1070 L 123 1070 L 123 1071 L 125 1071 L 125 1072 L 127 1072 L 127 1073 L 128 1073 L 128 1074 L 130 1074 L 130 1075 L 132 1075 L 132 1076 L 134 1076 L 134 1077 L 136 1077 L 136 1078 L 138 1078 L 138 1079 L 140 1079 L 140 1080 L 142 1080 L 142 1081 L 144 1081 L 144 1082 L 146 1082 L 146 1083 L 148 1083 L 148 1084 L 150 1084 L 150 1085 L 151 1085 L 151 1086 L 153 1086 L 153 1087 L 155 1087 L 155 1088 L 157 1088 L 157 1089 L 159 1089 L 159 1090 L 161 1090 L 161 1091 L 163 1091 L 163 1092 L 165 1092 L 165 1093 L 167 1093 L 167 1094 L 169 1094 L 169 1095 L 171 1095 L 171 1096 L 172 1096 L 172 1097 L 174 1097 L 174 1098 L 176 1098 L 176 1099 L 178 1099 L 178 1100 L 180 1100 L 180 1101 L 182 1101 L 182 1102 L 184 1102 L 184 1103 L 186 1103 L 186 1104 L 188 1104 L 188 1105 L 190 1105 L 190 1106 L 192 1106 L 192 1107 L 194 1107 L 194 1108 L 195 1108 L 195 1109 L 197 1109 L 197 1110 L 199 1110 L 199 1111 L 201 1111 L 201 1112 L 203 1112 L 203 1113 L 205 1113 L 205 1114 L 207 1114 L 207 1115 L 209 1115 L 209 1116 L 211 1116 L 211 1117 L 213 1117 L 213 1118 L 215 1118 L 215 1119 L 217 1119 L 217 1120 L 218 1120 L 218 1121 L 220 1121 L 220 1122 L 222 1122 L 222 1123 L 224 1123 L 224 1124 L 226 1124 L 226 1125 L 228 1125 L 228 1126 L 230 1126 L 230 1127 L 232 1127 L 232 1128 L 234 1128 L 234 1129 L 236 1129 L 236 1130 L 238 1130 L 238 1131 L 239 1131 L 239 1132 L 241 1132 L 241 1133 L 243 1133 L 243 1134 L 245 1134 L 245 1135 L 247 1135 L 247 1136 L 249 1136 L 249 1137 L 251 1137 L 251 1138 L 253 1138 L 253 1139 L 255 1139 L 255 1140 L 257 1140 L 257 1141 L 259 1141 L 259 1142 L 261 1142 L 261 1143 L 262 1143 L 262 1144 L 264 1144 L 264 1145 L 266 1145 L 266 1146 L 268 1146 L 268 1147 L 270 1147 L 270 1148 L 272 1148 L 272 1149 L 274 1149 L 274 1150 L 276 1150 L 276 1151 L 278 1151 L 278 1152 L 280 1152 L 280 1153 L 282 1153 L 282 1154 L 283 1154 L 283 1155 L 285 1155 L 285 1156 L 287 1156 L 287 1157 L 289 1157 L 289 1158 L 291 1158 L 291 1159 L 293 1159 L 293 1160 L 295 1160 L 295 1161 L 297 1161 L 297 1162 L 299 1162 L 299 1163 L 301 1163 L 301 1164 L 303 1164 L 303 1165 L 305 1165 L 305 1166 L 306 1166 L 306 1167 L 308 1167 L 308 1168 L 310 1168 L 310 1169 L 312 1169 L 312 1170 L 314 1170 L 314 1171 L 316 1171 L 316 1172 L 318 1172 L 318 1173 L 320 1173 L 320 1174 L 322 1174 L 322 1175 L 324 1175 L 324 1176 L 326 1176 L 326 1177 L 328 1177 L 328 1178 L 329 1178 L 329 1179 L 331 1179 L 331 1180 L 333 1180 L 333 1181 L 335 1181 L 335 1182 L 337 1182 L 337 1183 L 339 1183 L 339 1184 L 341 1184 L 341 1185 L 343 1185 L 343 1186 L 345 1186 L 345 1187 L 347 1187 L 347 1188 L 349 1188 L 349 1189 L 350 1189 L 350 1190 L 352 1190 L 352 1191 L 354 1191 L 354 1192 L 356 1192 L 356 1193 L 358 1193 L 358 1194 L 360 1194 L 360 1195 L 362 1195 L 362 1196 L 364 1196 L 364 1197 L 366 1197 L 366 1198 L 368 1198 L 368 1199 L 370 1199 L 370 1200 L 372 1200 L 372 1201 L 373 1201 L 373 1202 L 375 1202 L 375 1203 L 377 1203 L 377 1204 L 379 1204 L 379 1205 L 381 1205 L 381 1206 L 383 1206 L 383 1207 L 385 1207 L 385 1208 L 387 1208 L 387 1209 L 389 1209 L 389 1210 L 391 1210 L 391 1211 L 393 1211 L 393 1212 L 394 1212 L 394 1213 L 396 1213 L 396 1214 L 398 1214 L 398 1215 L 400 1215 L 400 1216 L 402 1216 L 402 1217 L 404 1217 L 404 1218 L 406 1218 L 406 1219 L 408 1219 L 408 1220 L 410 1220 L 410 1221 L 412 1221 L 412 1222 L 414 1222 L 414 1223 L 416 1223 L 416 1224 L 417 1224 L 417 1225 L 419 1225 L 419 1226 L 421 1226 L 421 1227 L 423 1227 L 423 1228 L 425 1228 L 425 1229 L 427 1229 L 427 1230 L 429 1230 L 429 1231 L 431 1231 L 431 1232 L 433 1232 L 433 1233 L 435 1233 L 435 1234 L 437 1234 L 437 1235 L 439 1235 L 439 1236 L 440 1236 L 440 1237 L 442 1237 L 442 1238 L 444 1238 L 444 1239 L 446 1239 L 446 1240 L 448 1240 L 448 1241 L 450 1241 L 450 1242 L 452 1242 L 452 1243 L 454 1243 L 454 1244 L 456 1244 L 456 1245 L 458 1245 L 458 1246 L 463 1246 L 463 1245 L 465 1245 L 465 1244 L 468 1244 L 468 1243 L 470 1243 L 470 1242 L 472 1242 L 472 1241 L 475 1241 L 475 1240 L 477 1240 L 477 1239 L 479 1239 L 479 1238 L 482 1238 L 482 1237 L 484 1237 L 484 1236 L 486 1236 L 486 1235 L 489 1235 L 489 1234 L 491 1234 L 491 1233 L 493 1233 L 493 1232 L 496 1232 L 496 1231 L 498 1231 L 498 1230 L 500 1230 L 500 1229 L 503 1229 L 503 1228 L 505 1228 L 505 1227 L 507 1227 L 507 1226 L 510 1226 L 510 1225 L 512 1225 L 512 1224 L 514 1224 L 514 1223 L 517 1223 L 517 1222 L 519 1222 L 519 1221 L 521 1221 L 521 1220 L 524 1220 L 524 1219 L 526 1219 L 526 1218 L 528 1218 L 528 1217 L 531 1217 L 531 1216 L 533 1216 L 533 1215 L 535 1215 L 535 1214 L 538 1214 L 538 1213 L 540 1213 L 540 1212 L 542 1212 L 542 1211 L 545 1211 L 545 1210 L 547 1210 L 547 1209 L 549 1209 L 549 1208 L 552 1208 L 552 1207 L 554 1207 L 554 1206 L 556 1206 L 556 1205 L 559 1205 L 559 1204 L 561 1204 L 561 1203 L 563 1203 L 563 1202 L 566 1202 L 566 1201 L 568 1201 L 568 1200 L 570 1200 L 570 1199 L 573 1199 L 573 1198 L 575 1198 L 575 1197 L 577 1197 L 577 1196 L 580 1196 L 580 1195 L 582 1195 L 582 1194 L 584 1194 L 584 1193 L 587 1193 L 587 1192 L 589 1192 L 589 1191 L 591 1191 L 591 1190 L 594 1190 L 594 1189 L 596 1189 L 596 1188 L 598 1188 L 598 1187 L 601 1187 L 601 1186 L 603 1186 L 603 1185 L 605 1185 L 605 1184 L 608 1184 L 608 1183 L 610 1183 L 610 1182 L 612 1182 L 612 1181 L 615 1181 L 615 1180 L 617 1180 L 617 1179 L 619 1179 L 619 1178 L 622 1178 L 622 1177 L 624 1177 L 624 1176 L 626 1176 L 626 1175 L 629 1175 L 629 1174 L 631 1174 L 631 1173 L 633 1173 L 633 1172 L 636 1172 L 636 1171 L 638 1171 L 638 1170 L 640 1170 L 640 1169 L 643 1169 L 643 1168 L 645 1168 L 645 1167 L 647 1167 L 647 1166 L 650 1166 L 650 1165 L 652 1165 L 652 1164 L 654 1164 L 654 1163 L 657 1163 L 657 1162 L 659 1162 L 659 1161 L 661 1161 L 661 1160 L 664 1160 L 664 1159 L 666 1159 L 666 1158 L 668 1158 L 668 1157 L 671 1157 L 671 1156 L 673 1156 L 673 1155 L 675 1155 L 675 1154 L 678 1154 L 678 1153 L 680 1153 L 680 1152 L 682 1152 L 682 1151 L 685 1151 L 685 1150 L 687 1150 L 687 1149 L 689 1149 L 689 1148 L 692 1148 L 692 1147 L 694 1147 L 694 1146 L 696 1146 L 696 1145 L 699 1145 L 699 1144 L 701 1144 L 701 1143 L 703 1143 L 703 1142 L 706 1142 L 706 1141 L 708 1141 L 708 1140 L 710 1140 L 710 1139 L 713 1139 L 713 1138 L 715 1138 L 715 1137 L 717 1137 L 717 1136 L 720 1136 L 720 1135 L 722 1135 L 722 1134 L 724 1134 L 724 1133 L 727 1133 L 727 1132 L 729 1132 L 729 1131 L 731 1131 L 731 1130 L 734 1130 L 734 1129 L 736 1129 L 736 1128 L 738 1128 L 738 1127 L 741 1127 L 741 1126 L 743 1126 L 743 1125 L 745 1125 L 745 1124 L 748 1124 L 748 1123 L 750 1123 L 750 1122 L 752 1122 L 752 1121 L 755 1121 L 755 1120 L 757 1120 L 757 1119 L 759 1119 L 759 1118 L 762 1118 L 762 1117 L 764 1117 L 764 1116 L 766 1116 L 766 1115 L 769 1115 L 769 1114 L 771 1114 L 771 1113 L 773 1113 L 773 1112 L 776 1112 L 776 1111 L 778 1111 L 778 1110 L 780 1110 L 780 1109 L 783 1109 L 783 1108 L 785 1108 L 785 1107 L 787 1107 L 787 1106 L 790 1106 L 790 1105 L 792 1105 L 792 1104 L 794 1104 L 794 1103 L 797 1103 L 797 1102 L 799 1102 L 799 1101 L 801 1101 L 801 1100 L 804 1100 L 804 1099 L 806 1099 L 806 1098 L 808 1098 L 808 1097 L 811 1097 L 811 1096 L 813 1096 L 813 1095 L 815 1095 L 815 1094 L 818 1094 L 818 1093 L 820 1093 L 820 1092 L 822 1092 L 822 1091 L 825 1091 L 825 1090 L 827 1090 L 827 1089 L 829 1089 L 829 1088 L 831 1088 L 831 1087 L 834 1087 L 834 1086 L 836 1086 L 836 1085 L 838 1085 L 838 1084 L 841 1084 L 841 1083 L 843 1083 L 843 1082 L 845 1082 L 845 1081 L 848 1081 L 848 1080 L 850 1080 L 850 1079 L 852 1079 L 852 1078 L 855 1078 L 855 1077 L 857 1077 L 857 1076 L 859 1076 L 859 1075 L 862 1075 L 862 1074 L 864 1074 L 864 1073 L 866 1073 L 866 1072 L 869 1072 L 869 1071 L 871 1071 L 871 1070 L 873 1070 L 873 1069 L 876 1069 L 876 1068 L 878 1068 L 878 1067 L 880 1067 L 880 1066 L 883 1066 L 883 1065 L 885 1065 L 885 1064 L 887 1064 L 887 1063 L 890 1063 L 890 1062 L 892 1062 L 892 1061 L 894 1061 L 894 1060 L 897 1060 L 897 1059 L 899 1059 L 899 1058 L 901 1058 L 901 1057 L 904 1057 L 904 1056 L 906 1056 L 906 1055 L 908 1055 L 908 1054 L 911 1054 L 911 1053 L 913 1053 L 913 1052 L 915 1052 L 915 1051 L 918 1051 L 918 1050 L 920 1050 L 920 1049 L 922 1049 L 922 1048 L 925 1048 L 925 1047 L 927 1047 L 927 1046 L 929 1046 L 929 1045 L 932 1045 L 932 1044 L 934 1044 L 934 1043 L 936 1043 L 936 1042 L 939 1042 L 939 1041 L 941 1041 L 941 1040 L 943 1040 L 943 1039 L 946 1039 L 946 1038 L 948 1038 L 948 1037 L 950 1037 L 950 1036 L 953 1036 L 953 1035 L 955 1035 L 955 1034 L 957 1034 L 957 1033 L 960 1033 L 960 1032 L 962 1032 L 962 1031 L 964 1031 L 964 1030 L 967 1030 L 967 1029 L 969 1029 L 969 1028 L 971 1028 L 971 1027 L 974 1027 L 974 1026 L 976 1026 L 976 1025 L 978 1025 L 978 1024 L 981 1024 L 981 1023 L 983 1023 L 983 1022 L 985 1022 L 985 1021 L 988 1021 L 988 1020 L 990 1020 L 990 1019 L 992 1019 L 992 1018 L 995 1018 L 995 1017 L 997 1017 L 997 1016 L 999 1016 L 999 1015 L 1002 1015 L 1002 1014 L 1004 1014 L 1004 1013 L 1006 1013 L 1006 1012 L 1009 1012 L 1009 1011 L 1011 1011 L 1011 1010 L 1013 1010 L 1013 1009 L 1016 1009 L 1016 1008 L 1018 1008 L 1018 1007 L 1020 1007 L 1020 1006 L 1023 1006 L 1023 1005 L 1025 1005 L 1025 1004 L 1027 1004 L 1027 1003 L 1030 1003 L 1030 1002 L 1032 1002 L 1032 1001 L 1034 1001 L 1034 1000 L 1037 1000 L 1037 999 L 1039 999 L 1039 998 L 1041 998 L 1041 997 L 1044 997 L 1044 996 L 1046 996 L 1046 995 L 1048 995 L 1048 994 L 1051 994 L 1051 993 L 1053 993 L 1053 992 L 1055 992 L 1055 991 L 1058 991 L 1058 990 L 1060 990 L 1060 989 L 1062 989 L 1062 988 L 1065 988 L 1065 987 L 1067 987 L 1067 986 L 1069 986 L 1069 985 L 1072 985 L 1072 984 L 1074 984 L 1074 983 L 1076 983 L 1076 982 L 1079 982 L 1079 981 L 1081 981 L 1081 980 L 1083 980 L 1083 979 L 1086 979 L 1086 978 L 1088 978 L 1088 977 L 1090 977 L 1090 976 L 1093 976 L 1093 975 L 1095 975 L 1095 974 L 1097 974 L 1097 973 L 1099 973 L 1099 972 L 1102 972 L 1102 971 L 1104 971 L 1104 970 L 1106 970 L 1106 969 L 1109 969 L 1109 968 L 1111 968 L 1111 967 L 1113 967 L 1113 966 L 1116 966 L 1116 965 L 1118 965 L 1118 964 L 1120 964 L 1120 963 L 1123 963 L 1123 962 L 1125 962 L 1125 961 L 1127 961 L 1127 960 L 1130 960 L 1130 959 L 1132 959 L 1132 958 L 1134 958 L 1134 957 L 1137 957 L 1137 956 L 1139 956 L 1139 955 L 1141 955 L 1141 954 L 1144 954 L 1144 953 L 1146 953 L 1146 952 L 1148 952 L 1148 951 L 1151 951 L 1151 950 L 1153 950 L 1153 949 L 1155 949 L 1155 948 L 1158 948 L 1158 947 L 1160 947 L 1160 946 L 1162 946 L 1162 945 L 1165 945 L 1165 944 L 1167 944 L 1167 943 L 1169 943 L 1169 942 L 1172 942 L 1172 941 L 1174 941 L 1174 940 L 1176 940 L 1176 939 L 1179 939 L 1179 938 L 1181 938 L 1181 937 L 1183 937 L 1183 936 L 1186 936 L 1186 935 L 1188 935 L 1188 934 L 1190 934 L 1190 933 L 1193 933 L 1193 932 L 1195 932 L 1195 931 L 1197 931 L 1197 930 L 1200 930 L 1200 929 L 1202 929 L 1202 928 L 1204 928 L 1204 927 L 1207 927 L 1207 926 L 1209 926 L 1209 925 L 1211 925 L 1211 924 L 1214 924 L 1214 923 L 1216 923 L 1216 922 L 1218 922 L 1218 921 L 1221 921 L 1221 920 L 1223 920 L 1223 919 L 1225 919 L 1225 918 L 1228 918 L 1228 917 L 1230 917 L 1230 916 L 1232 916 L 1232 915 L 1235 915 L 1235 914 L 1237 914 L 1237 913 L 1239 913 L 1239 912 L 1242 912 L 1242 911 L 1244 911 L 1244 910 L 1246 910 L 1246 909 L 1249 909 L 1249 908 L 1251 908 L 1251 907 L 1253 907 L 1253 906 L 1256 906 L 1256 905 L 1258 905 L 1258 904 L 1260 904 L 1260 903 L 1263 903 L 1263 902 L 1265 902 L 1265 901 L 1267 901 L 1267 900 L 1270 900 L 1270 899 L 1272 899 L 1272 898 L 1274 898 L 1274 897 L 1277 897 L 1277 896 L 1279 896 L 1279 895 L 1281 895 L 1281 894 L 1284 894 L 1284 893 L 1286 893 L 1286 892 L 1288 892 L 1288 891 L 1291 891 L 1291 890 L 1293 890 L 1293 889 L 1295 889 L 1295 888 L 1298 888 L 1298 887 L 1300 887 L 1300 886 L 1302 886 L 1302 885 L 1305 885 L 1305 884 L 1307 884 L 1307 0 L 284 0 L 284 803 L 286 803 L 286 804 L 288 804 L 288 805 L 290 805 L 290 806 L 292 806 L 292 807 L 293 807 L 293 808 L 295 808 L 295 809 L 297 809 L 297 810 L 299 810 L 299 811 L 301 811 L 301 812 L 303 812 L 303 813 L 305 813 L 305 814 L 307 814 L 307 815 L 309 815 L 309 816 L 311 816 L 311 817 L 313 817 L 313 818 L 314 818 L 314 819 L 316 819 L 316 820 L 318 820 L 318 821 L 320 821 L 320 822 L 322 822 L 322 823 L 324 823 L 324 824 L 326 824 L 326 825 L 328 825 L 328 826 L 330 826 L 330 827 L 332 827 L 332 828 L 334 828 L 334 829 L 335 829 L 335 830 L 337 830 L 337 831 L 339 831 L 339 832 L 341 832 L 341 833 L 343 833 L 343 834 L 345 834 L 345 835 L 347 835 L 347 836 L 349 836 L 349 837 L 351 837 L 351 838 L 353 838 L 353 839 L 355 839 L 355 840 L 356 840 L 356 841 L 358 841 L 358 842 L 360 842 L 360 843 L 362 843 L 362 844 L 364 844 L 364 845 L 366 845 L 366 846 L 368 846 L 368 847 L 370 847 L 370 848 L 372 848 L 372 849 L 374 849 L 374 850 L 376 850 L 376 851 L 377 851 L 377 852 L 379 852 L 379 853 L 381 853 L 381 854 L 383 854 L 383 855 L 385 855 L 385 856 L 387 856 L 387 857 L 389 857 L 389 858 L 391 858 L 391 859 L 393 859 L 393 860 L 395 860 L 395 861 L 397 861 L 397 862 L 398 862 L 398 863 L 400 863 L 400 864 L 402 864 L 402 865 L 404 865 L 404 866 L 406 866 L 406 867 L 408 867 L 408 868 L 410 868 L 410 869 L 412 869 L 412 870 L 414 870 L 414 871 L 416 871 L 416 872 L 418 872 L 418 873 L 419 873 L 419 874 L 421 874 L 421 875 L 423 875 L 423 876 L 425 876 L 425 877 L 427 877 L 427 878 L 429 878 L 429 879 L 431 879 L 431 880 L 433 880 L 433 881 L 435 881 L 435 882 L 437 882 L 437 883 L 439 883 L 439 884 L 440 884 L 440 885 L 442 885 L 442 886 L 444 886 L 444 887 L 446 887 L 446 888 L 448 888 L 448 889 L 450 889 L 450 890 L 452 890 L 452 891 L 454 891 L 454 892 L 456 892 L 456 893 L 458 893 L 458 894 L 460 894 L 460 895 L 461 895 L 461 187 L 1105 187 L 1105 749 L 1103 749 L 1103 750 L 1100 750 L 1100 751 L 1098 751 L 1098 752 L 1096 752 L 1096 753 L 1093 753 L 1093 754 L 1091 754 L 1091 755 L 1089 755 L 1089 756 L 1086 756 L 1086 757 L 1084 757 L 1084 758 L 1082 758 L 1082 759 L 1079 759 L 1079 760 L 1077 760 L 1077 761 L 1075 761 L 1075 762 L 1073 762 L 1073 763 L 1070 763 L 1070 764 L 1068 764 L 1068 765 L 1066 765 L 1066 766 L 1063 766 L 1063 767 L 1061 767 L 1061 768 L 1059 768 L 1059 769 L 1056 769 L 1056 770 L 1054 770 L 1054 771 L 1052 771 L 1052 772 L 1049 772 L 1049 773 L 1047 773 L 1047 774 L 1045 774 L 1045 775 L 1042 775 L 1042 776 L 1040 776 L 1040 777 L 1038 777 L 1038 778 L 1035 778 L 1035 779 L 1033 779 L 1033 780 L 1031 780 L 1031 781 L 1028 781 L 1028 782 L 1026 782 L 1026 783 L 1024 783 L 1024 784 L 1021 784 L 1021 785 L 1019 785 L 1019 786 L 1017 786 L 1017 787 L 1014 787 L 1014 788 L 1012 788 L 1012 789 L 1010 789 L 1010 790 L 1008 790 L 1008 791 L 1005 791 L 1005 792 L 1003 792 L 1003 793 L 1001 793 L 1001 794 L 998 794 L 998 795 L 996 795 L 996 796 L 994 796 L 994 797 L 991 797 L 991 798 L 989 798 L 989 799 L 987 799 L 987 800 L 984 800 L 984 801 L 982 801 L 982 802 L 980 802 L 980 803 L 977 803 L 977 804 L 975 804 L 975 805 L 973 805 L 973 806 L 970 806 L 970 807 L 968 807 L 968 808 L 966 808 L 966 809 L 963 809 L 963 810 L 961 810 L 961 811 L 959 811 L 959 295 L 756 295 L 756 899 L 754 899 L 754 900 L 751 900 L 751 901 L 749 901 L 749 902 L 747 902 L 747 903 L 744 903 L 744 904 L 742 904 L 742 905 L 740 905 L 740 906 L 737 906 L 737 907 L 735 907 L 735 908 L 733 908 L 733 909 L 730 909 L 730 910 L 728 910 L 728 911 L 726 911 L 726 912 L 723 912 L 723 913 L 721 913 L 721 914 L 719 914 L 719 915 L 716 915 L 716 916 L 714 916 L 714 917 L 712 917 L 712 918 L 709 918 L 709 919 L 707 919 L 707 920 L 705 920 L 705 921 L 702 921 L 702 922 L 700 922 L 700 923 L 698 923 L 698 924 L 695 924 L 695 925 L 693 925 L 693 926 L 691 926 L 691 927 L 688 927 L 688 928 L 686 928 L 686 929 L 684 929 L 684 930 L 681 930 L 681 931 L 679 931 L 679 932 L 677 932 L 677 933 L 675 933 L 675 934 L 672 934 L 672 935 L 670 935 L 670 936 L 668 936 L 668 937 L 665 937 L 665 938 L 663 938 L 663 939 L 661 939 L 661 940 L 658 940 L 658 941 L 656 941 L 656 942 L 654 942 L 654 943 L 651 943 L 651 944 L 649 944 L 649 945 L 647 945 L 647 946 L 644 946 L 644 947 L 642 947 L 642 948 L 640 948 L 640 949 L 637 949 L 637 950 L 635 950 L 635 951 L 633 951 L 633 952 L 630 952 L 630 953 L 628 953 L 628 954 L 626 954 L 626 955 L 623 955 L 623 956 L 621 956 L 621 957 L 619 957 L 619 958 L 616 958 L 616 959 L 614 959 L 614 960 L 612 960 L 612 961 L 609 961 L 609 962 L 607 962 L 607 963 L 605 963 L 605 964 L 602 964 L 602 965 L 600 965 L 600 966 L 598 966 L 598 967 L 595 967 L 595 968 L 593 968 L 593 969 L 591 969 L 591 970 L 588 970 L 588 971 L 586 971 L 586 972 L 584 972 L 584 973 L 581 973 L 581 974 L 579 974 L 579 975 L 577 975 L 577 976 L 574 976 L 574 977 L 572 977 L 572 978 L 570 978 L 570 979 L 567 979 L 567 980 L 565 980 L 565 981 L 563 981 L 563 982 L 560 982 L 560 983 L 558 983 L 558 984 L 556 984 L 556 985 L 554 985 L 554 986 L 551 986 L 551 987 L 549 987 L 549 988 L 547 988 L 547 989 L 544 989 L 544 990 L 542 990 L 542 991 L 540 991 L 540 992 L 537 992 L 537 993 L 535 993 L 535 994 L 533 994 L 533 995 L 530 995 L 530 996 L 528 996 L 528 997 L 526 997 L 526 998 L 523 998 L 523 999 L 521 999 L 521 1000 L 519 1000 L 519 1001 L 516 1001 L 516 1002 L 514 1002 L 514 1003 L 512 1003 L 512 1004 L 509 1004 L 509 1005 L 507 1005 L 507 1006 L 505 1006 L 505 1007 L 502 1007 L 502 1008 L 500 1008 L 500 1009 L 498 1009 L 498 1010 L 495 1010 L 495 1011 L 493 1011 L 493 1012 L 491 1012 L 491 1013 L 488 1013 L 488 1014 L 486 1014 L 486 1015 L 484 1015 L 484 1016 L 481 1016 L 481 1017 L 479 1017 L 479 1018 L 477 1018 L 477 1019 L 474 1019 L 474 1020 L 472 1020 L 472 1021 L 470 1021 L 470 1022 L 467 1022 L 467 1023 L 465 1023 L 465 1024 L 463 1024 L 463 1025 L 458 1025 L 458 1024 L 456 1024 L 456 1023 L 454 1023 L 454 1022 L 452 1022 L 452 1021 L 451 1021 L 451 1020 L 449 1020 L 449 1019 L 447 1019 L 447 1018 L 445 1018 L 445 1017 L 443 1017 L 443 1016 L 441 1016 L 441 1015 L 439 1015 L 439 1014 L 437 1014 L 437 1013 L 435 1013 L 435 1012 L 433 1012 L 433 1011 L 431 1011 L 431 1010 L 429 1010 L 429 1009 L 428 1009 L 428 1008 L 426 1008 L 426 1007 L 424 1007 L 424 1006 L 422 1006 L 422 1005 L 420 1005 L 420 1004 L 418 1004 L 418 1003 L 416 1003 L 416 1002 L 414 1002 L 414 1001 L 412 1001 L 412 1000 L 410 1000 L 410 999 L 408 999 L 408 998 L 407 998 L 407 997 L 405 997 L 405 996 L 403 996 L 403 995 L 401 995 L 401 994 L 399 994 L 399 993 L 397 993 L 397 992 L 395 992 L 395 991 L 393 991 L 393 990 L 391 990 L 391 989 L 389 989 L 389 988 L 387 988 L 387 987 L 385 987 L 385 986 L 384 986 L 384 985 L 382 985 L 382 984 L 380 984 L 380 983 L 378 983 L 378 982 L 376 982 L 376 981 L 374 981 L 374 980 L 372 980 L 372 979 L 370 979 L 370 978 L 368 978 L 368 977 L 366 977 L 366 976 L 364 976 L 364 975 L 363 975 L 363 974 L 361 974 L 361 973 L 359 973 L 359 972 L 357 972 L 357 971 L 355 971 L 355 970 L 353 970 L 353 969 L 351 969 L 351 968 L 349 968 L 349 967 L 347 967 L 347 966 L 345 966 L 345 965 L 343 965 L 343 964 L 341 964 L 341 963 L 340 963 L 340 962 L 338 962 L 338 961 L 336 961 L 336 960 L 334 960 L 334 959 L 332 959 L 332 958 L 330 958 L 330 957 L 328 957 L 328 956 L 326 956 L 326 955 L 324 955 L 324 954 L 322 954 L 322 953 L 320 953 L 320 952 L 319 952 L 319 951 L 317 951 L 317 950 L 315 950 L 315 949 L 313 949 L 313 948 L 311 948 L 311 947 L 309 947 L 309 946 L 307 946 L 307 945 L 305 945 L 305 944 L 303 944 L 303 943 L 301 943 L 301 942 L 299 942 L 299 941 L 298 941 L 298 940 L 296 940 L 296 939 L 294 939 L 294 938 L 292 938 L 292 937 L 290 937 L 290 936 L 288 936 L 288 935 L 286 935 L 286 934 L 284 934 L 284 933 L 282 933 L 282 932 L 280 932 L 280 931 L 278 931 L 278 930 L 276 930 L 276 929 L 275 929 L 275 928 L 273 928 L 273 927 L 271 927 L 271 926 L 269 926 L 269 925 L 267 925 L 267 924 L 265 924 L 265 923 L 263 923 L 263 922 L 261 922 L 261 921 L 259 921 L 259 920 L 257 920 L 257 919 L 255 919 L 255 918 L 254 918 L 254 917 L 252 917 L 252 916 L 250 916 L 250 915 L 248 915 L 248 914 L 246 914 L 246 913 L 244 913 L 244 912 L 242 912 L 242 911 L 240 911 L 240 910 L 238 910 L 238 909 L 236 909 L 236 908 L 234 908 L 234 907 L 232 907 L 232 906 L 231 906 L 231 905 L 229 905 L 229 904 L 227 904 L 227 903 L 225 903 L 225 902 L 223 902 L 223 901 L 221 901 L 221 900 L 219 900 L 219 899 L 217 899 L 217 898 L 215 898 L 215 897 L 213 897 L 213 896 L 211 896 L 211 895 L 210 895 L 210 894 L 208 894 L 208 893 L 206 893 L 206 892 L 204 892 L 204 891 L 202 891 L 202 890 L 200 890 L 200 889 L 198 889 L 198 888 L 196 888 L 196 887 L 194 887 L 194 886 L 192 886 L 192 885 L 190 885 L 190 884 L 188 884 L 188 883 L 187 883 L 187 882 L 185 882 L 185 881 L 183 881 L 183 880 L 181 880 L 181 879 L 179 879 L 179 878 L 177 878 L 177 877 L 175 877 L 175 876 L 173 876 L 173 875 L 171 875 L 171 874 L 169 874 L 169 873 L 167 873 L 167 872 L 166 872 L 166 871 L 164 871 L 164 870 L 162 870 L 162 869 L 160 869 L 160 868 L 158 868 L 158 867 L 156 867 L 156 866 L 155 866 L 155 0" stroke-linecap="round" />
</g>
</g>
</g>
</svg>